<?xml version="1.0" standalone="no"?>
<!DOCTYPE svg PUBLIC "-//W3C//DTD SVG 20010904//EN"
 "http://www.w3.org/TR/2001/REC-SVG-20010904/DTD/svg10.dtd">
<svg version="1.0" xmlns="http://www.w3.org/2000/svg"
 width="781.000000pt" height="353.000000pt" viewBox="0 0 781.000000 353.000000"
 preserveAspectRatio="xMidYMid meet">

<g transform="translate(0.000000,353.000000) scale(0.100000,-0.100000)"
fill="#F2A950" stroke="none">
<path d="M3411 3511 c-15 -15 -21 -33 -21 -66 0 -116 -152 -182 -460 -200
-171 -10 -308 8 -880 116 -570 108 -854 144 -1080 136 -215 -7 -349 -45 -535
-153 -95 -55 -262 -218 -314 -306 -72 -123 -111 -257 -111 -384 0 -125 46
-222 138 -289 111 -81 290 -104 422 -54 168 64 368 259 341 333 -7 19 -18 22
-112 27 -114 6 -124 9 -186 51 -28 19 -50 46 -69 83 -23 49 -26 64 -22 128 7
110 58 192 161 258 233 151 434 132 1774 -166 855 -190 1105 -197 1265 -35 42
43 60 71 72 111 23 76 21 183 -4 235 -45 92 -184 181 -299 191 -50 5 -61 3
-80 -16z"/>
<path d="M5712 3324 c-12 -8 -22 -21 -22 -29 0 -8 -22 -53 -49 -100 -27 -47
-55 -101 -61 -120 -35 -106 96 -244 250 -262 58 -7 110 11 110 37 0 9 25 66
56 126 49 95 55 114 51 153 -9 82 -85 159 -191 195 -62 20 -115 21 -144 0z"/>
<path d="M1462 2989 c-72 -23 -101 -54 -81 -87 23 -36 -33 -227 -187 -642
l-76 -205 -207 -1 c-300 -2 -432 -32 -529 -119 -69 -62 -96 -127 -96 -230 0
-86 12 -121 58 -164 30 -28 79 -32 102 -9 8 8 21 38 29 67 7 29 21 61 30 71
46 50 178 83 388 96 l117 7 -26 -69 c-70 -180 -200 -575 -235 -712 -60 -235
-52 -333 34 -409 37 -32 118 -63 167 -63 46 0 125 29 149 54 18 19 25 42 32
103 15 141 63 284 261 768 l131 322 171 6 c542 20 926 146 902 296 -6 38 -48
88 -85 102 -38 15 -76 -6 -94 -52 -20 -50 -65 -72 -198 -95 -109 -19 -596 -27
-592 -9 1 6 36 106 78 222 157 445 179 619 86 712 -63 63 -202 80 -329 40z"/>
<path d="M7475 2802 c-109 -38 -224 -124 -407 -306 l-116 -117 -12 38 c-46
144 -161 283 -265 322 -78 30 -217 27 -280 -6 -104 -54 -271 -291 -417 -593
-135 -277 -448 -679 -530 -680 -45 0 -13 82 145 367 203 365 266 517 275 654
8 138 -50 222 -177 254 -94 25 -192 3 -227 -50 -14 -22 -15 -30 -4 -50 17 -33
9 -68 -52 -210 -146 -342 -295 -597 -472 -809 -127 -151 -197 -192 -204 -117
-3 26 23 88 122 290 134 275 189 420 207 547 35 249 -59 408 -241 407 -109 0
-209 -53 -357 -188 -61 -55 -63 -56 -63 -29 0 78 -59 170 -127 197 -93 37
-206 28 -263 -20 -33 -27 -37 -43 -18 -73 21 -33 -18 -142 -158 -438 -145
-307 -410 -611 -615 -707 -69 -32 -159 -35 -188 -6 -32 32 -44 96 -37 191 7
104 22 159 44 166 166 52 321 142 440 257 126 122 200 242 229 369 21 93 7
162 -44 218 -50 56 -111 74 -232 68 -176 -10 -349 -97 -502 -255 -229 -235
-391 -647 -350 -889 25 -146 117 -268 239 -315 78 -30 224 -37 313 -15 123 31
251 106 397 234 l62 54 0 -57 c0 -78 16 -127 59 -176 60 -71 156 -98 234 -66
52 22 62 42 62 126 1 92 21 142 153 383 49 90 105 195 125 233 49 99 161 240
296 375 116 115 193 169 224 157 10 -4 17 -15 17 -25 0 -11 -58 -136 -128
-279 -176 -356 -219 -495 -210 -677 13 -245 170 -362 359 -269 79 39 195 137
269 227 l55 68 8 -67 c25 -228 194 -322 392 -217 30 16 100 76 175 152 126
126 227 257 342 446 55 89 148 264 148 279 0 14 132 226 189 303 62 83 83 99
100 78 18 -22 48 -153 85 -377 l36 -212 -37 -46 c-65 -80 -396 -407 -445 -440
-46 -31 -47 -31 -81 -15 -97 46 -204 -51 -164 -148 10 -23 28 -43 49 -54 116
-60 301 41 584 318 l142 139 17 -58 c45 -156 121 -295 195 -353 129 -102 259
-73 446 102 188 176 514 660 514 763 0 62 -81 98 -128 58 -12 -10 -37 -49 -57
-87 -100 -189 -307 -495 -411 -606 -65 -69 -98 -90 -114 -73 -5 4 -21 130 -35
278 -14 149 -30 301 -36 339 l-9 69 37 46 c74 90 299 308 363 350 60 40 69 43
114 37 152 -17 218 151 86 219 -37 19 -73 18 -135 -3z m-3955 -247 c19 -23 6
-94 -31 -170 -43 -87 -122 -180 -205 -243 -63 -47 -172 -112 -189 -112 -10 0
106 216 161 301 59 90 162 201 207 223 40 19 42 19 57 1z"/>
<path d="M4290 1030 l0 -270 -27 -7 c-16 -4 -98 -7 -183 -7 -141 -1 -159 1
-201 22 -25 12 -48 22 -52 22 -34 0 73 -116 141 -153 68 -37 153 -57 244 -57
l78 0 0 -109 c0 -122 -6 -148 -47 -185 -42 -39 -105 -56 -207 -56 -101 0 -158
19 -209 68 -46 43 -59 77 -56 145 2 48 -1 62 -12 62 -22 0 -43 -54 -47 -123
-4 -52 0 -71 22 -116 112 -228 478 -234 648 -11 51 67 68 128 68 247 l0 98 88
-1 c48 -1 101 -4 117 -8 l30 -6 6 -170 c4 -112 12 -187 22 -220 37 -115 127
-185 239 -185 65 0 132 23 125 42 -2 7 -8 12 -13 12 -5 -1 -25 -4 -45 -8 -28
-5 -43 -1 -69 16 -84 57 -90 103 -90 661 l0 447 -85 0 -85 0 0 -234 0 -235
-46 20 c-25 12 -79 23 -120 26 l-74 6 0 228 0 227 -75 41 c-41 23 -77 41 -80
41 -3 0 -5 -121 -5 -270z"/>
<path d="M7213 1248 l-73 -42 0 -438 0 -438 -43 0 c-81 0 -82 2 -85 224 l-4
196 -40 0 -40 0 32 37 c40 45 61 94 62 143 1 68 -26 81 -55 26 -18 -32 -84
-80 -232 -169 -73 -44 -149 -119 -170 -170 -29 -71 -30 -199 0 -269 6 -15 1
-18 -32 -18 -52 0 -67 18 -103 119 -16 44 -34 89 -40 101 -8 16 -7 26 9 47 11
16 33 69 49 119 45 140 75 184 123 184 28 0 46 24 27 36 -6 4 -40 7 -77 8
-116 2 -184 -57 -231 -201 -30 -90 -57 -139 -87 -152 -13 -6 -26 -11 -28 -11
-3 0 -5 153 -5 340 0 187 -3 340 -6 340 -4 0 -40 -18 -80 -41 l-74 -40 0 -485
0 -484 80 0 80 0 0 150 0 150 28 0 c31 0 37 -9 82 -136 39 -110 114 -163 232
-164 65 0 68 1 83 30 l15 30 42 -30 c37 -27 48 -30 118 -30 l76 0 18 36 17 37
27 -26 c43 -41 74 -47 238 -47 l154 0 0 259 c0 289 1 295 61 271 54 -23 70
-72 78 -244 8 -162 15 -189 68 -237 39 -36 83 -49 172 -49 l77 0 27 55 c15 31
27 58 27 60 0 3 -38 5 -84 5 -123 0 -123 -2 -129 210 -6 156 -20 210 -74 265
-35 36 -87 65 -116 65 -8 0 -35 -16 -61 -35 l-46 -36 0 246 c0 135 -3 245 -7
245 -5 0 -41 -19 -80 -42z m-358 -900 c6 -16 1 -18 -39 -18 -77 0 -106 46
-106 167 0 67 16 99 77 153 l48 42 6 -163 c3 -90 10 -172 14 -181z"/>
<path d="M5018 1052 c-26 -20 -46 -40 -45 -43 3 -10 88 -79 96 -79 11 0 101
71 101 79 0 7 -94 81 -101 81 -2 -1 -25 -18 -51 -38z"/>
<path d="M5226 1048 l-48 -43 51 -38 c31 -24 55 -36 63 -31 27 16 88 66 88 73
0 7 -93 81 -101 81 -3 0 -26 -19 -53 -42z"/>
<path d="M5538 1049 l-48 -41 47 -39 c26 -21 51 -39 56 -39 12 0 97 70 97 80
0 8 -90 80 -99 80 -3 -1 -27 -19 -53 -41z"/>
<path d="M5748 1048 l-47 -41 48 -38 c27 -22 52 -39 56 -39 4 0 29 18 56 39
l49 39 -51 41 c-28 23 -54 41 -58 40 -3 0 -27 -18 -53 -41z"/>
<path d="M5082 794 l-123 -76 3 -183 3 -183 30 -44 c55 -79 177 -119 262 -87
53 20 102 79 124 149 59 190 20 391 -89 469 -58 41 -76 37 -210 -45z m111 -52
c47 -51 65 -180 48 -331 -16 -145 -54 -180 -98 -91 -22 41 -23 57 -23 236 0
145 3 194 13 197 24 10 44 7 60 -11z"/>
<path d="M5607 794 l-129 -76 4 -176 c2 -149 6 -182 21 -211 42 -76 119 -120
208 -121 138 0 219 127 219 344 0 118 -31 204 -92 263 -29 28 -75 53 -96 53
-4 0 -65 -34 -135 -76z m105 -51 c46 -53 53 -83 53 -233 0 -117 -4 -154 -18
-192 -10 -27 -25 -48 -32 -48 -23 0 -52 39 -64 85 -15 61 -15 377 1 393 17 17
42 15 60 -5z"/>
</g>
</svg>
