<svg width="951" height="652" viewBox="0 0 951 652" fill="none" xmlns="http://www.w3.org/2000/svg">
<path fill-rule="evenodd" clip-rule="evenodd" d="M454.285 16.6183C504.154 25.8466 543.489 56.4831 594.236 62.4704C659.66 70.1892 756.952 13.9429 791.077 56.3538C832.768 108.168 696.483 174.804 729.132 230.121C759.661 281.846 891.574 252.512 934.369 299.133C967.872 335.632 945.72 393.166 912.372 429.745C877.079 468.456 796.414 467.42 751.294 499.938C714.123 526.727 723.126 584.062 676.105 600.022C626.453 616.875 569.782 587.243 516.179 579.74C475.959 574.111 436.398 552.48 397.087 560.969C320.241 577.563 267.924 666.583 191.098 649.936C127.391 636.132 181.62 548.135 145.664 506.49C113.097 468.77 5.66125 473.588 0.245975 428.884C-5.84248 378.623 102.943 357.814 121.783 309.35C136.189 272.293 84.6091 235.339 90.392 196.995C96.4339 156.934 122.714 119.464 155.27 87.3136C189.703 53.3081 230.211 18.0416 284.625 5.17671C339.227 -7.7327 398.694 6.33116 454.285 16.6183Z" fill="#181616"/>
<path d="M401.5 272L418.5 205.5" stroke="#767676" stroke-width="5"/>
<path fill-rule="evenodd" clip-rule="evenodd" d="M634.738 225.49C639.346 220.081 642.464 213.453 641.943 206.025C640.442 184.625 610.651 189.333 604.857 200.134C599.062 210.935 599.75 238.333 607.24 240.263C610.226 241.033 616.589 239.147 623.065 235.244L619 264H643L634.738 225.49Z" fill="#915B3C"/>
<path fill-rule="evenodd" clip-rule="evenodd" d="M636.582 230.308C639.594 216.906 648.175 207.771 646.865 201.782C645.991 197.789 643.662 195.305 639.879 194.332C637.922 186.416 631.61 183.048 620.944 184.23C604.945 186.004 595.181 192.648 599.398 207.268C603.274 207.268 607.954 205.866 614.424 208.268C616.478 209.03 617.946 211.393 618.83 215.358H621.754C624.592 210.653 627.391 208.924 630.149 210.171C632.908 211.418 633.535 214.447 632.03 219.259L633.471 230.308H636.582Z" fill="#C4A475"/>
<path fill-rule="evenodd" clip-rule="evenodd" d="M710 389H595C586.163 389 579 396.163 579 405V497C579 505.837 586.163 513 595 513H710C718.837 513 726 505.837 726 497V405C726 396.163 718.837 389 710 389ZM694 417C696.209 417 698 418.791 698 421V481C698 483.209 696.209 485 694 485H611C608.791 485 607 483.209 607 481V421C607 418.791 608.791 417 611 417H694Z" fill="#C7C7C7"/>
<path fill-rule="evenodd" clip-rule="evenodd" d="M479.841 508C499.557 483.924 512.897 466.075 519.862 454.454C531.787 434.555 541.547 416.848 544.627 410.084C551.972 393.955 527.718 386.403 522.229 393.926C513.921 405.312 496.178 441.143 469 501.417L479.841 508Z" fill="#B28B67"/>
<path fill-rule="evenodd" clip-rule="evenodd" d="M520.242 501L556.935 408.637C564.783 391.8 526.884 380.732 521.117 388.568C508.023 406.357 476.901 476.534 473 481.834L520.242 501Z" fill="#2F3676"/>
<path fill-rule="evenodd" clip-rule="evenodd" d="M617.967 482.477C610.819 472.051 584.821 436.974 570.661 422.461C566.592 418.291 562.621 414.288 558.866 410.557C547.704 399.47 525.476 418.106 536.618 428.205C564.365 453.355 604.849 487.307 608.231 490.334C612.972 494.577 622.459 489.029 617.967 482.477Z" fill="#915B3C"/>
<path fill-rule="evenodd" clip-rule="evenodd" d="M616.295 477.767C618.758 479.794 620.359 481.45 621.101 482.734C622.002 484.296 623.058 486.725 624.267 490.021C622.456 491.067 606.174 500.467 575.422 518.222C571.73 514.759 571.155 512.07 573.696 510.157C576.238 508.243 578.335 506.629 579.988 505.315L596.848 482.087C597.172 481.64 597.798 481.54 598.244 481.865C598.252 481.87 598.26 481.876 598.267 481.882L601.77 484.579C604.984 484.299 607.382 483.702 608.965 482.788C610.251 482.045 611.727 480.501 613.393 478.154L613.393 478.154C614.033 477.253 615.281 477.041 616.182 477.681C616.221 477.708 616.259 477.737 616.295 477.767Z" fill="#E4E4E4"/>
<path fill-rule="evenodd" clip-rule="evenodd" d="M488.322 504.402C489.441 507.388 490 509.623 490 511.106C490 512.909 489.7 515.54 489.099 519C487.007 519 468.206 519 432.697 519C431.231 514.155 432.077 511.539 435.235 511.152C438.393 510.766 441.016 510.417 443.105 510.106L469.32 498.419C469.824 498.194 470.416 498.421 470.641 498.925C470.644 498.934 470.648 498.942 470.652 498.951L472.337 503.039C475.26 504.403 477.636 505.085 479.463 505.085C480.948 505.085 482.999 504.485 485.616 503.285L485.616 503.285C486.62 502.825 487.807 503.266 488.267 504.27C488.287 504.313 488.305 504.357 488.322 504.402Z" fill="#E4E4E4"/>
<path fill-rule="evenodd" clip-rule="evenodd" d="M570.138 413.25C600.635 408.282 621.062 404.884 631.42 403.058C660.943 397.852 669.552 381.965 664.462 347.302H610.066C602.867 349.381 572.79 362.237 519.833 385.872C510.305 390.602 512.079 404.548 513.821 409.142C513.892 409.329 529.954 436.853 562.008 491.713L606.506 463.366L570.054 416.59C569.092 414.651 569.12 413.538 570.138 413.25Z" fill="#5C63AB"/>
<path fill-rule="evenodd" clip-rule="evenodd" d="M566.219 334.211L534.321 357.635C525.669 359.97 518.441 362.874 512.636 366.349C511.265 367.598 509.608 370.128 515.295 369.691C520.981 369.254 526.982 369.049 527.767 370.989C528.551 372.929 525.11 375.248 526.696 377.865C527.754 379.61 532.749 375.235 541.683 364.741L573.27 351.642L566.219 334.211ZM688.692 335.02L667.795 335.102C680.698 376.756 687.664 398.857 688.692 401.406C691.006 407.14 686.109 415.874 684.015 420.567C690.835 423.619 690.109 412.317 698.712 416.319C706.565 419.973 712.538 426.592 721.611 420.994C722.726 420.306 723.949 417.715 720.995 415.69C713.638 410.645 703.035 401.815 701.602 398.908C699.648 394.945 695.345 373.649 688.692 335.02Z" fill="#915B3C"/>
<path fill-rule="evenodd" clip-rule="evenodd" d="M629.305 247.332L620.658 245.849C588.575 273.564 575.397 326.809 536.071 355.015L545.536 366.748C613.76 358.3 630.67 293.355 629.305 247.332Z" fill="#F2A950"/>
<path fill-rule="evenodd" clip-rule="evenodd" d="M667 356C632.328 356 606.824 356 590.489 356C586.992 356 587.651 350.952 588.157 348.404C593.989 319.004 616.759 287.312 616.759 245.461L638.828 242C657.083 271.358 663.395 307.505 667 356Z" fill="#DDE3E9"/>
<path fill-rule="evenodd" clip-rule="evenodd" d="M666.385 270.858C669.59 269.937 672.129 267.788 674 264.411C682.066 249.856 679.153 241.842 670.533 239.208C661.912 236.574 654.225 242 640.49 242C639.743 242 639.059 242.047 638.437 242.141L631.528 242.535C611.706 309.715 606.239 354.537 615.128 377H675.348C678.916 385.32 682.33 392.32 685.591 398H702C703.544 348.067 691.673 305.686 666.385 270.858Z" fill="#F2A950"/>
<path fill-rule="evenodd" clip-rule="evenodd" d="M662.235 342.498C660.341 358.344 657.263 369.845 653 377H675.348C671.186 367.295 666.815 355.794 662.235 342.498Z" fill="black" fill-opacity="0.1"/>
<path fill-rule="evenodd" clip-rule="evenodd" d="M300.443 140.741C297.261 134.049 295.909 126.53 298.439 119.189C305.728 98.0359 334.466 110.819 337.388 123.264C340.311 135.709 332.222 163.123 324.156 163.046C320.94 163.015 315.039 159.398 309.569 153.718L305.902 183.783L281.726 177.305L300.443 140.741Z" fill="#D4A181"/>
<path fill-rule="evenodd" clip-rule="evenodd" d="M309.217 141.468C304.677 146.419 299.37 149.642 295.227 148.532C287.359 146.423 284.583 134.405 287.614 123.094C287.72 122.697 287.834 122.304 287.954 121.917C278.101 125.398 268.67 134.938 257.657 131.987C242.674 127.972 244.821 96.1567 265.754 101.766C279.991 105.58 286.437 109.532 291.65 114.219C293.739 111.182 296.31 108.847 299.057 107.472C299.752 107.014 300.725 106.658 301.924 106.408C302.664 106.228 303.409 106.119 304.154 106.087C308.152 105.724 313.677 106.193 319.62 107.566C320.73 107.822 321.813 108.1 322.863 108.396C324.367 102.852 330.074 99.566 335.627 101.054C341.191 102.545 344.492 108.263 343.002 113.827C341.56 119.207 336.164 122.472 330.778 121.333C327.49 121.456 323.403 121.099 318.997 120.229C318.994 121.922 318.741 123.778 318.198 125.807C317.718 127.598 317.011 129.445 316.13 131.276C315.491 129.909 314.43 128.844 313.157 128.503C309.593 127.548 306.327 129.815 305.493 132.928C304.434 136.878 305.949 140.347 309.217 141.468Z" fill="#8C442A"/>
<path fill-rule="evenodd" clip-rule="evenodd" d="M250.887 269.498L289.09 401.14L307.058 499.978H325.093L307.09 269.498H250.887Z" fill="#BA8B72"/>
<path fill-rule="evenodd" clip-rule="evenodd" d="M233.719 269.498C236.385 337.885 235.333 375.185 234.737 381.399C234.14 387.612 230.753 429.224 207.674 502.064H226.431C256.997 432.187 267.666 390.574 271.172 381.399C274.678 372.223 285.031 334.923 300.147 269.498H233.719Z" fill="#D4A181"/>
<path fill-rule="evenodd" clip-rule="evenodd" d="M250.067 269.498C260.004 314.796 277.191 387.104 301.627 486.42H328.005C329.954 384.481 321.666 317.388 307.313 269.498H250.067Z" fill="#69A1AC"/>
<path fill-rule="evenodd" clip-rule="evenodd" d="M233.586 269.498C236.196 337.885 229.431 405.259 208.473 487.485H236.617C267.239 418.651 289.186 351.609 304.185 269.498H233.586Z" fill="#89C5CC"/>
<path fill-rule="evenodd" clip-rule="evenodd" d="M205 515.622L206.035 498.935C212.095 500.708 219.685 500.012 228.805 496.849C238.611 503.796 250.956 508.539 265.84 511.079C266.975 511.273 267.739 512.35 267.545 513.486C267.532 513.559 267.516 513.632 267.495 513.704L266.065 518.75H228.805H207.07L205 515.622Z" fill="white"/>
<path fill-rule="evenodd" clip-rule="evenodd" d="M303.032 515.622L304.067 498.935C310.127 500.708 317.717 500.012 326.837 496.849C336.643 503.796 348.988 508.539 363.872 511.079C365.007 511.273 365.771 512.35 365.577 513.486C365.564 513.559 365.548 513.632 365.528 513.704L364.097 518.75H326.837H305.102L303.032 515.622Z" fill="white"/>
<path fill-rule="evenodd" clip-rule="evenodd" d="M325.508 210.87L364.599 197.631C371.769 191.637 378.574 187.2 385.014 184.319C386.902 183.895 390.055 183.993 386.28 188.589C382.504 193.186 378.74 198.19 379.928 200.021C381.116 201.851 385.155 200.299 386.442 203.219C387.3 205.166 380.575 206.817 366.266 208.171L336.181 227.321L325.508 210.87ZM378.436 237.189L395.612 231.347C399.283 223.374 402.651 219.631 405.716 220.117C408.256 219.439 402.305 229.283 406.917 229.151C411.528 229.02 423.814 222.857 425.396 224.827C427.737 227.742 423.955 234.757 420.392 237.95C413.734 243.919 408.816 245.494 397.143 246.634C391.041 247.23 384.178 249.372 376.557 253.06L378.436 237.189Z" fill="#D4A181"/>
<path fill-rule="evenodd" clip-rule="evenodd" d="M308.914 203.46C321.423 205.529 338.539 205.828 358.294 197.683L362.528 214.473C348.128 224.475 329.135 231.429 314.143 228.349C302.328 225.922 298.792 210.49 308.914 203.46Z" fill="#E36538"/>
<path fill-rule="evenodd" clip-rule="evenodd" d="M321.327 231.377C334 237.021 356.917 237.042 390.077 231.44C394.994 248.817 396.559 260.863 394.772 267.579C365.539 276.841 341.498 279.03 322.524 276.108C321.148 287.43 317.901 297.86 311.596 306.803C298.633 325.187 246.703 296.888 227.498 297.269C222.53 257.471 247.71 246.092 251.987 221.942C256.671 195.494 285.089 158.524 288.214 159.075L316.711 164.1C314.722 184.579 318.71 208.237 321.327 231.377Z" fill="#F26D3D"/>
<path d="M409 439.5C426.5 428.5 446 436.5 446 419.5C446 402.5 421 401 399 401C377 401 360 413.5 343 395.5C326 377.5 335.5 332 349.5 317.5C363.5 303 381.5 304 393.5 288.5C397.991 282.698 401.5 271.5 401.5 271.5" stroke="#747474" stroke-width="4"/>
<rect x="387.953" y="434.546" width="8" height="3" transform="rotate(54.4428 387.953 434.546)" fill="#C4C4C4"/>
<path fill-rule="evenodd" clip-rule="evenodd" d="M389.078 439.772C393.572 419.023 396.091 397.151 396.633 374.159H399.547H401.413C401.956 397.151 404.474 419.023 408.969 439.772H415.773C424.735 439.772 432 450.121 432 462.886C432 475.652 424.735 486 415.773 486H381.226C372.265 486 365 475.652 365 462.886C365 450.121 372.265 439.772 381.226 439.772H389.078Z" fill="#DDE3E9"/>
<path d="M428.579 372H370.421C368.531 372 367 372.497 367 373.111V375.889C367 376.503 368.531 377 370.421 377H428.579C430.468 377 432 376.503 432 375.889V373.111C432 372.497 430.468 372 428.579 372Z" fill="#646464"/>
<rect x="397" y="357" width="4" height="15" fill="#C4C4C4"/>
<path d="M396 356L397 357H401L402 356L403 355L404 354L404.5 353L405 352V351H393V352L393.5 353L394 354L395 355L396 356Z" fill="#C4C4C4" stroke="#C4C4C4"/>
<rect x="417.604" y="203" width="2.97659" height="2.64271" transform="rotate(13.215 417.604 203)" fill="#767676"/>
</svg>
