<?xml version="1.0" standalone="no"?>
<!DOCTYPE svg PUBLIC "-//W3C//DTD SVG 20010904//EN"
 "http://www.w3.org/TR/2001/REC-SVG-20010904/DTD/svg10.dtd">
<svg version="1.0" xmlns="http://www.w3.org/2000/svg"
 width="1094.000000pt" height="346.000000pt" viewBox="0 0 1094.000000 346.000000"
 preserveAspectRatio="xMidYMid meet">

<g transform="translate(0.000000,346.000000) scale(0.100000,-0.100000)"
fill="#F2A950" stroke="none">
<path d="M758 3378 c-90 -112 -136 -226 -145 -358 -5 -81 -1 -108 33 -227 4
-16 2 -23 -8 -23 -25 0 -78 151 -78 223 0 20 -4 37 -10 37 -17 0 -68 -79 -86
-133 -20 -59 -21 -159 -3 -215 37 -115 127 -252 222 -338 114 -102 332 -242
490 -314 67 -30 262 -100 280 -100 6 0 -34 46 -89 103 -172 176 -264 305 -362
507 -126 258 -188 499 -195 767 -2 57 -6 105 -9 108 -3 3 -21 -14 -40 -37z"/>
<path d="M46 3253 c-22 -115 -23 -405 -2 -537 36 -219 113 -379 259 -541 43
-46 50 -65 26 -65 -26 0 -228 219 -229 247 -1 14 -38 58 -45 52 -12 -13 27
-161 66 -246 67 -146 214 -304 347 -372 41 -21 57 -51 26 -51 -23 0 -154 67
-197 102 -21 16 -40 28 -43 26 -7 -8 45 -99 88 -156 52 -67 157 -146 231 -174
32 -11 60 -25 64 -31 8 -14 -19 -27 -42 -20 -52 16 -55 10 -81 -137 -40 -233
0 -489 108 -690 123 -229 285 -385 524 -504 188 -94 343 -129 569 -129 223 0
375 34 572 129 254 122 461 321 580 558 151 299 162 658 31 951 -32 70 -56
109 -45 70 3 -11 15 -51 26 -89 36 -121 45 -222 32 -339 -58 -521 -478 -888
-1012 -888 -325 0 -579 126 -679 337 -61 127 -64 260 -10 371 71 145 225 221
423 210 74 -4 98 -10 153 -38 60 -30 164 -125 164 -150 0 -5 5 -9 11 -9 7 0
10 21 7 58 -2 45 0 57 12 57 40 0 37 -190 -4 -281 -15 -32 -24 -60 -21 -63 4
-3 44 14 90 37 149 77 269 223 310 377 21 79 20 224 -1 295 -36 121 -118 234
-215 296 -22 13 -97 49 -167 80 -154 67 -220 114 -243 172 -30 76 -53 -73 -27
-176 11 -47 49 -123 74 -153 14 -16 19 -39 8 -39 -25 0 -234 35 -299 50 -456
106 -865 375 -1128 741 -120 167 -246 449 -279 627 -12 67 -23 79 -32 35z"/>
<path d="M9045 2841 c-63 -16 -121 -58 -168 -122 -15 -21 -43 -95 -67 -175
-23 -76 -53 -156 -67 -176 -27 -41 -109 -108 -130 -108 -20 0 -15 -18 9 -31
13 -7 49 -10 94 -7 175 11 269 117 324 364 16 68 79 153 144 192 30 17 59 32
65 32 6 0 11 4 11 10 0 24 -143 38 -215 21z"/>
<path d="M9290 2749 c-89 -40 -142 -115 -176 -249 -9 -36 -20 -69 -25 -74 -5
-6 -9 -19 -9 -29 0 -43 -94 -144 -155 -167 -44 -17 -28 -30 39 -30 102 0 188
39 238 109 24 33 88 205 88 235 0 24 50 104 84 134 18 16 54 37 79 48 26 10
45 24 44 29 -2 6 -39 11 -83 12 -61 2 -89 -3 -124 -18z"/>
<path d="M6363 2729 c-7 -7 -13 -29 -13 -48 0 -117 -146 -179 -460 -196 -172
-9 -310 8 -867 105 -609 107 -976 145 -1170 121 -179 -22 -382 -99 -518 -195
-130 -93 -248 -248 -295 -386 -31 -90 -38 -221 -16 -288 22 -65 93 -145 157
-178 160 -81 335 -70 509 32 75 44 180 145 200 193 23 56 9 65 -106 72 -57 3
-114 12 -136 21 -55 24 -115 90 -129 140 -43 163 93 326 321 384 172 44 595
-13 1486 -200 516 -108 741 -145 944 -153 221 -8 341 24 421 115 63 72 89 205
55 286 -20 48 -91 112 -164 148 -72 36 -196 51 -219 27z"/>
<path d="M4442 2252 c-29 -11 -59 -25 -65 -31 -7 -7 -12 -40 -13 -74 -1 -74
-45 -208 -173 -527 l-86 -215 -240 -6 c-319 -9 -423 -35 -515 -131 -114 -116
-80 -358 50 -358 31 0 70 44 70 78 0 63 60 101 200 128 99 19 320 31 320 17 0
-6 -11 -35 -24 -64 -38 -87 -171 -447 -199 -539 -85 -280 -87 -377 -9 -456 65
-65 195 -86 286 -46 49 22 66 45 66 90 0 96 78 312 274 753 l119 266 161 7
c454 19 793 97 875 202 31 39 28 89 -8 124 -56 57 -120 53 -144 -9 -17 -43
-49 -60 -147 -80 -130 -26 -621 -44 -633 -23 -3 4 20 68 50 142 191 476 210
673 70 747 -50 26 -216 29 -285 5z"/>
<path d="M10622 2085 c-29 -8 -67 -22 -85 -31 -90 -47 -231 -157 -359 -282
l-76 -75 -42 89 c-55 115 -137 200 -225 234 -90 35 -212 34 -286 -3 -54 -26
-144 -105 -144 -126 0 -17 -524 -723 -605 -816 -79 -90 -189 -192 -220 -205
-79 -33 -52 41 117 325 72 121 152 261 177 310 112 224 124 369 37 456 -67 68
-212 89 -304 44 -45 -21 -54 -38 -40 -75 13 -36 -7 -99 -83 -255 -84 -173
-150 -270 -314 -460 -38 -44 -109 -128 -158 -186 -82 -96 -167 -169 -197 -169
-7 0 -18 6 -24 13 -17 22 9 92 87 235 172 312 227 448 238 594 15 196 -64 313
-221 326 -109 8 -213 -39 -377 -173 -46 -37 -58 -43 -58 -28 0 85 -72 172
-160 193 -66 16 -159 8 -208 -18 -37 -19 -37 -20 -34 -74 3 -63 -18 -127 -90
-273 -56 -113 -130 -216 -241 -336 -29 -30 -83 -91 -120 -136 -161 -190 -356
-323 -475 -323 -29 0 -62 5 -74 11 -46 25 -61 138 -35 263 l12 59 80 27 c334
112 607 389 608 615 1 134 -80 198 -248 198 -350 -1 -688 -295 -831 -723 -36
-107 -38 -123 -39 -235 0 -110 2 -125 27 -177 37 -80 99 -142 177 -180 60 -29
77 -32 183 -36 99 -4 127 -1 190 18 137 41 283 131 423 262 61 57 77 67 71 48
-14 -50 -18 -146 -7 -188 24 -88 111 -151 209 -152 55 0 131 30 133 53 1 6 2
44 3 82 2 83 21 124 189 410 131 225 158 262 280 390 139 148 253 235 307 235
37 0 23 -49 -51 -185 -39 -72 -95 -175 -125 -230 -203 -382 -169 -713 78 -750
123 -19 304 101 489 323 l44 54 1 -99 c1 -106 13 -146 60 -202 67 -80 199
-100 304 -47 84 42 192 129 273 220 127 141 242 297 229 311 -4 5 -2 5 4 2 11
-6 20 4 23 26 0 4 5 13 11 20 5 6 89 120 186 252 184 251 267 343 290 324 26
-21 39 -78 110 -458 l16 -84 -69 -70 c-113 -115 -324 -307 -389 -353 l-60 -43
-46 16 c-40 15 -49 15 -84 2 -50 -19 -88 -72 -80 -114 3 -16 20 -42 36 -57 26
-24 38 -28 93 -28 42 0 81 8 119 24 110 45 294 183 464 349 l62 59 17 -58 c42
-150 132 -288 221 -340 131 -77 275 -23 480 181 136 136 361 440 421 571 23
50 23 55 8 83 -10 21 -25 32 -48 36 -49 10 -83 -9 -108 -57 -35 -69 -164 -263
-257 -388 -150 -199 -258 -299 -282 -259 -5 7 -12 43 -15 79 -16 169 -56 516
-60 528 -11 29 279 302 398 375 56 35 67 38 109 32 104 -13 177 59 143 141
-25 61 -94 83 -183 59z m-4087 -270 c-1 -126 -145 -295 -337 -395 -42 -22 -79
-40 -83 -40 -10 0 73 147 139 245 97 143 216 251 266 242 11 -2 15 -16 15 -52z"/>
</g>
</svg>
